<svg width="175" height="108" viewBox="0 0 175 108" fill="none" xmlns="http://www.w3.org/2000/svg">
<path d="M72.264 55.136C72.264 57.184 72.136 59.3173 71.88 61.536H22.344C22.6853 65.9733 24.0933 69.3867 26.568 71.776C29.128 74.08 32.2427 75.232 35.912 75.232C41.3733 75.232 45.1707 72.928 47.304 68.32H70.6C69.4053 73.0133 67.2293 77.2373 64.072 80.992C61 84.7467 57.1173 87.6907 52.424 89.824C47.7307 91.9573 42.4827 93.024 36.68 93.024C29.6827 93.024 23.4533 91.5307 17.992 88.544C12.5307 85.5573 8.264 81.2907 5.192 75.744C2.12 70.1973 0.584 63.712 0.584 56.288C0.584 48.864 2.07733 42.3787 5.064 36.832C8.136 31.2853 12.4027 27.0187 17.864 24.032C23.3253 21.0453 29.5973 19.552 36.68 19.552C43.592 19.552 49.736 21.0027 55.112 23.904C60.488 26.8053 64.6693 30.944 67.656 36.32C70.728 41.696 72.264 47.968 72.264 55.136ZM49.864 49.376C49.864 45.6213 48.584 42.6347 46.024 40.416C43.464 38.1973 40.264 37.088 36.424 37.088C32.7547 37.088 29.64 38.1547 27.08 40.288C24.6053 42.4213 23.0693 45.4507 22.472 49.376H49.864ZM147.811 107.36L136.291 91.872C132.878 92.5547 129.55 92.896 126.307 92.896C117.859 92.896 110.094 90.9333 103.011 87.008C96.0137 83.0827 90.4243 77.6213 86.243 70.624C82.147 63.5413 80.099 55.6053 80.099 46.816C80.099 38.0267 82.147 30.1333 86.243 23.136C90.4243 16.1387 96.0137 10.6773 103.011 6.752C110.094 2.82667 117.859 0.863998 126.307 0.863998C134.755 0.863998 142.478 2.82667 149.475 6.752C156.558 10.6773 162.104 16.1387 166.115 23.136C170.211 30.1333 172.259 38.0267 172.259 46.816C172.259 54.496 170.68 61.536 167.523 67.936C164.451 74.2507 160.142 79.4987 154.595 83.68L174.307 107.36H147.811ZM102.499 46.816C102.499 54.752 104.632 61.1093 108.899 65.888C113.251 70.5813 119.054 72.928 126.307 72.928C133.475 72.928 139.192 70.5387 143.459 65.76C147.811 60.9813 149.987 54.6667 149.987 46.816C149.987 38.88 147.811 32.5653 143.459 27.872C139.192 23.0933 133.475 20.704 126.307 20.704C119.054 20.704 113.251 23.0507 108.899 27.744C104.632 32.4373 102.499 38.7947 102.499 46.816Z" fill="#16A34A"/>
</svg>
